{
    "programs": [

    ],
    "streams": [
        {
            "index": 0,
            "codec_name": "mpeg2video",
            "codec_long_name": "MPEG-2 video",
            "profile": "Main",
            "codec_type": "video",
            "codec_time_base": "1001/60000",
            "codec_tag_string": "xdvb",
            "codec_tag": "0x62766478",
            "width": 1920,
            "height": 1080,
            "has_b_frames": 1,
            "sample_aspect_ratio": "1:1",
            "display_aspect_ratio": "16:9",
            "pix_fmt": "yuv420p",
            "level": 4,
            "color_range": "tv",
            "color_space": "bt709",
            "color_transfer": "bt709",
            "color_primaries": "bt709",
            "chroma_location": "left",
            "timecode": "00:00:00:00",
            "refs": 1,
            "r_frame_rate": "2997/100",
            "avg_frame_rate": "2997/100",
            "time_base": "1/2997",
            "start_pts": 200,
            "start_time": "0.066733",
            "duration_ts": 822100,
            "duration": "274.307641",
            "bit_rate": "23899090",
            "max_bit_rate": "35000000",
            "nb_frames": "8221",
            "disposition": {
                "default": 1,
                "dub": 0,
                "original": 0,
                "comment": 0,
                "lyrics": 0,
                "karaoke": 0,
                "forced": 0,
                "hearing_impaired": 0,
                "visual_impaired": 0,
                "clean_effects": 0,
                "attached_pic": 0
            },
            "tags": {
                "creation_time": "2014-12-16 18:43:31",
                "language": "eng",
                "handler_name": "Apple Alias Data Handler",
                "encoder": "XDCAM EX 1080i60 (35 Mb/s VBR)",
                "timecode": "00:00:00:00"
            }
        },
        {
            "index": 1,
            "codec_name": "pcm_s16le",
            "codec_long_name": "PCM signed 16-bit little-endian",
            "codec_type": "audio",
            "codec_time_base": "1/48000",
            "codec_tag_string": "sowt",
            "codec_tag": "0x74776f73",
            "sample_fmt": "s16",
            "sample_rate": "48000",
            "channels": 2,
            "bits_per_sample": 16,
            "r_frame_rate": "0/0",
            "avg_frame_rate": "0/0",
            "time_base": "1/48000",
            "start_pts": 0,
            "start_time": "0.000000",
            "duration_ts": 13166754,
            "duration": "274.307375",
            "bit_rate": "1536000",
            "nb_frames": "13166754",
            "disposition": {
                "default": 1,
                "dub": 0,
                "original": 0,
                "comment": 0,
                "lyrics": 0,
                "karaoke": 0,
                "forced": 0,
                "hearing_impaired": 0,
                "visual_impaired": 0,
                "clean_effects": 0,
                "attached_pic": 0
            },
            "tags": {
                "creation_time": "2014-12-16 18:43:31",
                "language": "eng",
                "handler_name": "Apple Alias Data Handler"
            }
        },
        {
            "index": 2,
            "codec_type": "data",
            "codec_time_base": "1/30",
            "codec_tag_string": "tmcd",
            "codec_tag": "0x64636d74",
            "r_frame_rate": "0/0",
            "avg_frame_rate": "0/0",
            "time_base": "1/2997",
            "start_pts": 0,
            "start_time": "0.000000",
            "duration_ts": 822100,
            "duration": "274.307641",
            "nb_frames": "1",
            "disposition": {
                "default": 1,
                "dub": 0,
                "original": 0,
                "comment": 0,
                "lyrics": 0,
                "karaoke": 0,
                "forced": 0,
                "hearing_impaired": 0,
                "visual_impaired": 0,
                "clean_effects": 0,
                "attached_pic": 0
            },
            "tags": {
                "creation_time": "2014-12-16 18:44:15",
                "language": "eng",
                "handler_name": "Apple Alias Data Handler",
                "timecode": "00:00:00:00"
            }
        }
    ],
    "format": {
        "filename": "MANUARIO EMILIA 161214.mov",
        "nb_streams": 3,
        "nb_programs": 0,
        "format_name": "mov,mp4,m4a,3gp,3g2,mj2",
        "format_long_name": "QuickTime / MOV",
        "start_time": "0.000000",
        "duration": "274.307641",
        "size": "872538250",
        "bit_rate": "25446998",
        "probe_score": 100,
        "tags": {
            "major_brand": "qt  ",
            "minor_version": "537199360",
            "compatible_brands": "qt  ",
            "creation_time": "2014-12-16 18:43:31"
        }
    }
}
